#!OML:ASF I:\Actors\actors\Patient Classification 1\Patient 1\Session 1\Subject1.ASF
:FULLY-SPECIFIED
:DEGREES
770
root 0.487182 17.6434 8.48895 17.5175 23.1866 -8.38786
lowerback 9.6168 4.62078 11.3553
upperback -6.80248 8.16696 1.11899
thorax -11.5248 3.0533 -6.57462
lowerneck -7.27982 12.3311 16.0606
upperneck 16.3174 16.4944 -9.66496
head 8.41651 8.14421 -3.93356
rclavicle -1.25234e-014 -2.46493e-014
rhumerus 11.3472 36.6979 -68.8064
rradius 114.926
rwrist 15.8853
rhand 44.8525 -61.3661
rfingers 7.12502
rthumb 66.2742 -66.2677
lclavicle -1.25234e-014 -2.46493e-014
lhumerus -18.407 -16.2838 68.9802
lradius 126.906
lwrist 6.51849
lhand 60.3902 5.83684
lfingers 7.12502
lthumb 74.6812 -27.9663
rfemur -8.94695 28.6698 20.6575
rtibia 0.484152
rfoot -28.2332 -43.6545
rtoes 20.0144
lfemur -22.7964 -35.1184 4.06742
ltibia -0.269869
lfoot -2.2852 31.8138
ltoes -13.0456
771
root 0.455246 17.6434 8.50329 17.4223 22.1736 -8.18157
lowerback 8.68991 4.68772 10.5979
upperback -6.47863 8.03254 1.61322
thorax -10.7714 3.14505 -5.48328
lowerneck -6.95316 12.6183 15.769
upperneck 16.2947 17.0775 -10.0977
head 8.44327 8.38431 -3.96402
rclavicle 5.76476e-014 -1.35174e-014
rhumerus 11.6923 37.0216 -67.8582
rradius 115.177
rwrist 15.4476
rhand 44.911 -61.5757
rfingers 7.12502
rthumb 66.3189 -66.3915
lclavicle 5.76476e-014 -1.35174e-014
lhumerus -18.3064 -15.8183 69.8476
lradius 126.772
lwrist 6.34048
lhand 60.0064 5.50682
lfingers 7.12502
lthumb 74.6022 -26.9289
rfemur -8.9265 28.4245 20.4847
rtibia 0.647945
rfoot -27.087 -42.8688
rtoes 18.9314
lfemur -22.037 -35.5081 3.64377
ltibia -0.404164
lfoot -2.8682 32.9774
ltoes -11.5914
772
root 0.42359 17.641 8.51929 17.2882 21.0075 -7.77706
lowerback 9.25888 4.64045 10.3586
upperback -6.91634 8.03285 1.36139
thorax -11.6109 3.07564 -5.72114
lowerneck -6.60976 12.875 16.0468
upperneck 16.9665 17.4631 -9.79175
head 8.66031 8.61834 -3.85307
rclavicle -1.02473e-013 -4.21423e-014
rhumerus 10.4797 37.2385 -68.8781
rradius 115.388
rwrist 15.133
rhand 44.6432 -61.7071
rfingers 7.12502
rthumb 66.1137 -66.9134
lclavicle -1.02473e-013 -4.21423e-014
lhumerus -19.1009 -16.199 69.8146
lradius 126.889
lwrist 6.39321
lhand 59.7816 5.49283
lfingers 7.12502
lthumb 74.5518 -26.1485
rfemur -8.78858 28.155 20.1121
rtibia 0.780551
rfoot -25.9648 -41.9801
rtoes 17.618
lfemur -21.0413 -36.1934 2.89459
ltibia -0.602854
lfoot -3.5409 34.4501
ltoes -9.97079
773
root 0.388203 17.6411 8.54529 17.1326 20.1414 -7.71675
lowerback 6.79349 4.8084 9.14367
upperback -5.7832 7.76281 2.377
thorax -9.16432 3.28177 -3.60635
lowerneck -6.29245 13.1778 15.5326
upperneck 16.1774 18.2068 -11.1518
head 8.52443 8.85634 -4.14001
rclavicle 5.06901e-014 6.2816e-014
rhumerus 12.458 37.3691 -66.2967
rradius 115.554
rwrist 14.3978
rhand 45.1283 -61.9844
rfingers 7.12502
rthumb 66.4846 -66.4781
lclavicle 5.06901e-014 6.2816e-014
lhumerus -18.1131 -15.0633 71.3694
lradius 126.593
lwrist 6.05334
lhand 59.8797 5.38275
lfingers 7.12502
lthumb 74.5741 -26.6044
rfemur -8.64091 28.0718 20.1872
rtibia 0.82808
rfoot -25.1139 -41.3856
rtoes 16.5181
lfemur -20.2225 -36.3533 2.54049
ltibia -0.78881
lfoot -3.93636 35.3211
ltoes -9.3022
774
root 0.34877 17.6403 8.57629 16.9731 19.4419 -7.61285
lowerback 6.87948 4.71234 9.53592
upperback -6.12677 7.68555 1.99314
thorax -9.51022 3.17278 -4.24177
lowerneck -5.99757 13.3842 15.9025
upperneck 16.606 18.4785 -10.8333
head 8.66067 9.03704 -4.0557
rclavicle 2.79292e-014 -3.97569e-015
rhumerus 11.2404 37.3743 -67.5716
rradius 115.811
rwrist 14.2028
rhand 45.8573 -62.0286
rfingers 7.12502
rthumb 67.0343 -65.4072
lclavicle 2.79292e-014 -3.97569e-015
lhumerus -18.4535 -15.5124 71.0581
lradius 126.498
lwrist 6.28971
lhand 60.0002 5.13274
lfingers 7.12502
lthumb 74.6009 -27.281
rfemur -8.33883 28.0927 20.3164
rtibia 0.740643
rfoot -24.3703 -41.0332
rtoes 15.6118
lfemur -19.449 -36.3025 2.09769
ltibia -0.913693
lfoot -4.22316 35.8311
ltoes -9.03326
775
root 0.308306 17.6348 8.60302 16.7764 18.4972 -6.95986
lowerback 7.2551 4.65572 9.37079
upperback -6.43117 7.61165 1.44122
thorax -10.0252 3.0834 -4.78958
lowerneck -5.77358 13.5638 16.2327
upperneck 17.2195 18.6767 -10.2792
head 8.83495 9.19604 -3.89215
rclavicle -9.74045e-015 -1.27222e-014
rhumerus 10.0018 37.4272 -68.8844
rradius 116.039
rwrist 14.1554
rhand 45.3898 -61.9126
rfingers 7.12502
rthumb 66.6828 -66.0126
lclavicle -9.74045e-015 -1.27222e-014
lhumerus -18.8346 -15.9544 70.6524
lradius 126.46
lwrist 6.44588
lhand 59.896 5.09214
lfingers 7.12502
lthumb 74.5778 -26.9528
rfemur -7.80376 28.0012 19.8857
rtibia 0.614125
rfoot -23.5918 -40.4523
rtoes 14.6946
lfemur -18.3464 -36.7095 0.85392
ltibia -1.01941
lfoot -4.7671 36.7381
ltoes -8.25623
776
root 0.264378 17.6345 8.62997 16.5705 17.9266 -6.9206
lowerback 7.40119 4.59363 9.72221
upperback -6.81311 7.59293 1.11074
thorax -10.4655 2.99424 -5.36966
lowerneck -5.4983 13.6609 16.4618
upperneck 17.7154 18.7854 -9.80817
head 8.94647 9.30651 -3.76143
rclavicle 8.71671e-014 1.66979e-014
rhumerus 8.80006 37.4204 -70.0308
rradius 116.241
rwrist 14.4696
rhand 45.2691 -61.8935
rfingers 7.12502
rthumb 66.5915 -66.1761
lclavicle 8.71671e-014 1.66979e-014
lhumerus -19.2886 -16.5129 70.4399
lradius 126.552
lwrist 6.65938
lhand 59.7501 5.88216
lfingers 7.12502
lthumb 74.5445 -25.6483
rfemur -7.55855 27.8577 20.1059
rtibia 0.650677
rfoot -23.0355 -39.9018
rtoes 13.8581
lfemur -17.6856 -36.5311 0.518887
ltibia -1.02966
lfoot -5.03888 36.9966
ltoes -8.23898
777
root 0.217515 17.6399 8.65968 16.3589 17.8039 -7.68792
lowerback 7.3795 4.47815 11.0147
upperback -7.34607 7.63041 0.89865
thorax -10.8974 2.85526 -6.33224
lowerneck -5.24593 13.7286 16.7524
upperneck 18.2373 18.8466 -9.34427
head 9.07272 9.39878 -3.64621
rclavicle 5.23798e-014 -9.54166e-015
rhumerus 7.55581 37.2981 -71.3001
rradius 116.453
rwrist 14.986
rhand 46.1251 -61.7861
rfingers 7.12502
rthumb 67.2337 -64.7413
lclavicle 5.23798e-014 -9.54166e-015
lhumerus -19.8368 -17.1863 70.1662
lradius 126.622
lwrist 6.86643
lhand 59.4353 6.5118
lfingers 7.12502
lthumb 74.4682 -23.917
rfemur -7.60388 27.7312 21.2008
rtibia 0.796035
rfoot -22.6633 -39.5179
rtoes 13.2822
lfemur -17.5178 -35.5949 1.36112
ltibia -0.996492
lfoot -4.93326 36.4647
ltoes -8.94201
778
root 0.169895 17.6446 8.68663 16.0744 17.554 -8.21454
lowerback 6.81272 4.46239 11.2721
upperback -7.43292 7.60474 1.24153
thorax -10.6837 2.85559 -6.03898
lowerneck -5.14309 13.8433 16.5858
upperneck 18.7635 19.1028 -9.3081
head 9.25058 9.51789 -3.56852
rclavicle -4.16951e-014 -4.85035e-014
rhumerus 7.26164 37.4994 -71.1337
rradius 116.655
rwrist 15.0913
rhand 46.7029 -61.5695
rfingers 7.12502
rthumb 67.6597 -63.5843
lclavicle -4.16951e-014 -4.85035e-014
lhumerus -20.1456 -17.0637 70.7416
lradius 126.499
lwrist 6.58353
lhand 59.1421 6.42774
lfingers 7.12502
lthumb 74.3919 -22.985
rfemur -7.46333 27.5666 22.0751
rtibia 0.906855
rfoot -22.2651 -39.0364
rtoes 12.8306
lfemur -17.0992 -34.8545 1.81054
ltibia -0.988794
lfoot -5.02343 36.1027
ltoes -9.14454
779
root 0.122403 17.649 8.71163 15.7394 17.2248 -8.4251
lowerback 6.46668 4.41887 11.4068
upperback -7.51301 7.53188 1.36672
thorax -10.5849 2.82218 -5.93493
lowerneck -5.04378 13.9722 16.4863
upperneck 19.3173 19.3298 -9.0833
head 9.4228 9.64078 -3.44077
rclavicle 9.10434e-014 6.59965e-014
rhumerus 6.94199 37.7208 -71.2096
rradius 116.763
rwrist 14.9543
rhand 47.0341 -61.36
rfingers 7.12502
rthumb 67.9008 -62.8192
lclavicle 9.10434e-014 6.59965e-014
lhumerus -20.3896 -16.8608 70.9759
lradius 126.398
lwrist 6.36908
lhand 59.0161 6.33277
lfingers 7.12502
lthumb 74.3576 -22.6464
rfemur -7.1574 27.4214 22.64
rtibia 0.989784
rfoot -21.937 -38.5652
rtoes 12.5126
lfemur -16.4857 -34.6322 1.85258
ltibia -1.00348
lfoot -5.38705 36.1634
ltoes -8.72188
780
root 0.0748465 17.652 8.73689 15.4128 16.9726 -8.62375
lowerback 6.50985 4.46592 12.0823
upperback -7.88062 7.68812 1.0304
thorax -10.8952 2.79053 -6.70678
lowerneck -4.86255 13.9019 16.6681
upperneck 19.9144 19.1867 -8.54636
head 9.54335 9.6393 -3.31349
rclavicle 6.92516e-014 7.95139e-015
rhumerus 5.84001 37.4975 -72.1087
rradius 116.894
rwrist 14.8671
rhand 47.2019 -61.122
rfingers 7.12502
rthumb 68.0222 -62.2949
lclavicle 6.92516e-014 7.95139e-015
lhumerus -20.6944 -17.3561 70.7812
lradius 126.34
lwrist 6.47711
lhand 59.0328 6.25924
lfingers 7.12502
lthumb 74.3622 -22.7772
rfemur -6.88391 27.3091 23.1829
rtibia 1.09092
rfoot -21.7281 -38.2027
rtoes 12.5035
lfemur -15.9562 -34.8032 1.99689
ltibia -1.00952
lfoot -5.8527 36.5521
ltoes -8.04213
781
root 0.0292371 17.6509 8.76403 15.0668 16.7518 -8.744
lowerback 6.31392 4.50747 12.3976
upperback -8.08896 7.75878 0.883161
thorax -10.9535 2.78036 -7.03481
lowerneck -4.72018 13.8825 16.7184
upperneck 20.4054 19.1482 -8.16549
head 9.6514 9.66522 -3.20137
rclavicle 9.54166e-015 -3.37934e-014
rhumerus 5.11795 37.5171 -72.5847
rradius 117.133
rwrist 14.7268
rhand 47.2148 -61.2283
rfingers 7.12502
rthumb 68.0315 -62.379
lclavicle 9.54166e-015 -3.37934e-014
lhumerus -20.9632 -17.5415 70.8041
lradius 126.214
lwrist 6.57778
lhand 58.9989 6.33897
lfingers 7.12502
lthumb 74.3528 -22.5813
rfemur -6.52123 27.078 23.6743
rtibia 1.15233
rfoot -21.4601 -37.8338
rtoes 12.2329
lfemur -15.3421 -35.1216 2.00625
ltibia -1.0547
lfoot -6.23221 36.9964
ltoes -7.53591
782
root -0.0126565 17.6457 8.796 14.6466 16.5704 -8.7221
lowerback 5.97423 4.55071 12.4236
upperback -8.14628 7.76671 0.837245
thorax -10.8027 2.79189 -7.06338
lowerneck -4.67881 13.9125 16.5521
upperneck 20.8473 19.1712 -7.74064
head 9.74068 9.70517 -3.02917
rclavicle 1.09269e-013 1.94809e-014
rhumerus 4.80479 37.641 -72.7004
rradius 117.335
rwrist 14.5987
rhand 46.7151 -61.4855
rfingers 7.12502
rthumb 67.6686 -63.4801
lclavicle 1.09269e-013 1.94809e-014
lhumerus -21.1411 -17.5549 70.9612
lradius 126.042
lwrist 6.5373
lhand 58.749 6.35425
lfingers 7.12502
lthumb 74.2818 -21.7125
rfemur -5.91428 26.7159 24.0995
rtibia 1.10823
rfoot -21.2326 -37.4085
rtoes 11.8565
lfemur -14.5011 -35.3705 1.65347
ltibia -1.14849
lfoot -6.35463 37.2604
ltoes -7.52338
783
root -0.0576415 17.6416 8.83126 14.1821 16.4784 -8.74603
lowerback 5.63521 4.58728 12.4288
upperback -8.21155 7.76541 0.800515
thorax -10.667 2.79971 -7.07041
lowerneck -4.65741 13.941 16.4284
upperneck 21.3179 19.184 -7.30953
head 9.84722 9.74397 -2.85934
rclavicle 5.10007e-014 1.39149e-014
rhumerus 4.56783 37.7498 -72.807
rradius 117.456
rwrist 14.5583
rhand 45.805 -61.4943
rfingers 7.12502
rthumb 66.9951 -64.9548
lclavicle 5.10007e-014 1.39149e-014
lhumerus -21.3103 -17.5246 71.0356
lradius 125.928
lwrist 6.29227
lhand 58.8736 5.78825
lfingers 7.12502
lthumb 74.3177 -22.7033
rfemur -5.27609 26.2734 24.6246
rtibia 1.11768
rfoot -21.0192 -36.9545
rtoes 11.5874
lfemur -13.676 -35.4375 1.3286
ltibia -1.1841
lfoot -6.39794 37.3238
ltoes -7.77988
784
root -0.10589 17.6404 8.86537 13.7468 16.4824 -8.83105
lowerback 5.26112 4.63533 12.4509
upperback -8.30842 7.78116 0.77618
thorax -10.5439 2.81333 -7.0726
lowerneck -4.68549 13.9685 16.3727
upperneck 21.8654 19.1974 -6.9237
head 10.0038 9.78361 -2.70685
rclavicle 2.31584e-014 8.50798e-014
rhumerus 4.20484 37.7951 -73.0017
rradius 117.614
rwrist 14.5855
rhand 45.7154 -61.4247
rfingers 7.12502
rthumb 66.928 -65.0246
lclavicle 2.31584e-014 8.50798e-014
lhumerus -21.4769 -17.4396 71.0439
lradius 125.875
lwrist 5.99525
lhand 59.3787 5.28745
lfingers 7.12502
lthumb 74.4539 -24.9445
rfemur -4.75829 25.6591 25.193
rtibia 1.20539
rfoot -20.7268 -36.434
rtoes 11.1957
lfemur -12.989 -35.2674 1.16297
ltibia -1.21361
lfoot -6.40979 37.1188
ltoes -8.20797
